# xmcd
#
# Track frame offsets: 
#        150
#        22899
#        37074
#        56871
#        77331
#        88732
#        111385
#
# Disc length: 1587 seconds
#
# Revision: 0
# Processed by: cddbd v1.5.2PL0 Copyright (c) Steve Scherf et al.
# Submitted via: ExactAudioCopy v0.95b3
#
DISCID=53063107
DTITLE=Procol Harum  - Tour Rehearsal 2001 (Classic Pictures)
DYEAR=1900
DGENRE=
TTITLE0=Memorial Drive (Rehearsal)
TTITLE1=Seem To Have The Blues (Mostly All Of The Tiime) (Rehearsal)
TTITLE2=Wizard Man (Rehearsal)
TTITLE3=Morning Dew (Rehearsal)
TTITLE4=Hey Joe (Rehearsal)
TTITLE5=She Wandered Through The Garden Fence (Rehearsal)
TTITLE6=Let's Go Get Stoned (Rehearsal)
EXTD=
EXTT0=
EXTT1=
EXTT2=
EXTT3=
EXTT4=
EXTT5=
EXTT6=
PLAYORDER=
